<?xml version="1.0" standalone="no"?>
<!DOCTYPE svg PUBLIC "-//W3C//DTD SVG 20010904//EN"
 "http://www.w3.org/TR/2001/REC-SVG-20010904/DTD/svg10.dtd">
<svg version="1.0" xmlns="http://www.w3.org/2000/svg"
 width="565.000000pt" height="565.000000pt" viewBox="0 0 565.000000 565.000000"
 preserveAspectRatio="xMidYMid meet">
<metadata>
Created by potrace 1.14, written by Peter Selinger 2001-2017
</metadata>
<g transform="translate(0.000000,565.000000) scale(0.100000,-0.100000)"
fill="#000000" stroke="none">
<path d="M476 5138 c3 -4 -20 -39 -50 -77 -73 -91 -118 -175 -157 -291 -77
-231 -25 -421 170 -619 52 -53 94 -100 93 -104 -2 -5 1 -6 5 -4 12 7 114 -69
105 -78 -4 -5 -1 -5 6 -1 8 5 21 1 30 -7 17 -16 193 -107 205 -107 12 0 208
-78 292 -116 17 -7 69 -28 117 -47 48 -19 84 -38 80 -42 -4 -5 -1 -5 5 -1 12
7 45 -6 238 -91 98 -44 227 -122 219 -134 -3 -5 1 -7 8 -4 15 5 74 -43 64 -52
-3 -4 -19 3 -36 15 -44 33 -255 136 -339 166 -41 15 -79 30 -85 34 -6 4 -14 7
-18 8 -5 1 -9 2 -10 4 -2 1 -12 3 -23 4 -25 3 -187 56 -200 66 -5 4 -24 10
-41 13 -73 14 -380 133 -520 202 -84 41 -154 75 -157 75 -6 0 -2 -31 6 -50 30
-69 56 -154 50 -164 -3 -6 -3 -8 2 -4 4 4 24 -20 44 -54 70 -119 253 -283 401
-358 71 -36 31 -35 -82 4 -139 46 -200 75 -192 88 4 7 2 8 -4 4 -11 -6 -182
77 -248 121 -22 14 -24 14 -24 0 0 -35 66 -150 126 -221 18 -21 31 -43 27 -49
-3 -6 -2 -7 4 -4 5 3 20 -4 34 -16 96 -89 295 -221 469 -310 63 -32 117 -61
120 -64 9 -10 -81 7 -149 28 -98 30 -137 47 -231 101 -117 68 -119 69 -173
107 -26 18 -51 30 -55 27 -7 -7 70 -166 92 -189 6 -7 27 -33 47 -59 114 -150
252 -258 429 -338 174 -78 199 -88 275 -117 44 -17 121 -43 170 -58 174 -52
215 -67 215 -76 0 -6 4 -8 10 -4 5 3 27 -6 49 -20 23 -14 45 -25 49 -25 12 0
101 -67 130 -98 35 -37 73 -102 67 -112 -4 -6 -1 -10 6 -10 9 0 11 -34 6 -140
-5 -136 1 -163 24 -103 5 14 14 21 21 17 6 -4 8 -3 5 3 -3 5 7 35 23 66 37 74
46 123 60 346 6 101 16 195 21 209 22 57 88 82 109 41 13 -24 4 -93 -14 -112
-7 -7 -11 -18 -8 -26 3 -8 0 -11 -7 -7 -7 5 -9 1 -5 -9 4 -8 -1 -26 -9 -38
-70 -108 -73 -434 -5 -586 31 -69 80 -152 110 -185 10 -10 15 -23 12 -28 -3
-5 -1 -7 4 -6 14 5 83 -72 76 -84 -5 -7 -2 -8 5 -3 7 4 22 -2 37 -16 29 -27
31 -12 5 33 -36 60 -99 222 -111 286 -17 86 -8 201 23 291 30 85 73 155 89
145 6 -4 8 -3 5 3 -8 12 30 48 59 57 77 23 178 -148 159 -271 -6 -43 -6 -44
14 -33 40 21 105 145 91 171 -4 8 -17 58 -29 112 -32 148 -25 291 23 467 21
74 41 151 45 170 5 19 24 83 44 141 19 58 38 120 42 139 7 30 6 32 -14 27 -34
-8 -47 30 -31 87 7 27 17 43 23 39 6 -3 7 -1 3 6 -9 14 24 70 85 141 67 79
171 293 155 319 -4 6 -31 -3 -62 -20 -50 -26 -64 -29 -123 -25 -67 4 -108 10
-171 26 -54 14 -123 15 -148 1 -12 -7 -28 -9 -34 -5 -6 4 -8 3 -4 -4 3 -6 2
-13 -4 -17 -5 -3 -10 -1 -10 6 0 7 -3 10 -6 7 -3 -4 -36 4 -72 17 -145 50
-227 42 -285 -26 -21 -24 -37 -35 -39 -28 -3 9 -7 7 -11 -5 -5 -11 -3 -15 5
-10 8 5 9 2 3 -12 -4 -10 -10 -29 -12 -41 -5 -23 -5 -23 33 -7 71 30 186 0
259 -68 11 -10 30 -26 43 -36 23 -17 21 -17 -51 -17 -69 0 -77 -2 -120 -35
-63 -48 -68 -64 -18 -55 25 4 51 1 73 -8 29 -12 37 -23 48 -60 8 -30 10 -67 6
-104 -11 -97 -38 -237 -47 -249 -5 -6 -5 -15 -1 -19 4 -5 2 -5 -5 -2 -6 4 -24
40 -39 80 -15 39 -53 125 -85 191 -33 65 -56 123 -52 130 3 6 3 8 -2 4 -10 -9
-65 73 -58 87 4 5 3 7 -2 3 -11 -10 -86 92 -78 105 3 6 1 7 -4 4 -6 -4 -19 6
-29 21 -9 15 -32 43 -50 62 -75 82 -83 93 -77 103 3 5 2 7 -4 4 -11 -7 -86 66
-78 76 3 4 2 5 -1 2 -11 -7 -94 67 -87 78 4 6 1 7 -7 2 -8 -5 -17 -2 -24 7 -6
8 -16 17 -22 19 -6 2 -26 16 -45 32 -61 50 -182 131 -284 191 -55 33 -120 71
-146 86 -25 15 -55 31 -67 34 -12 4 -20 12 -17 17 3 5 0 7 -7 4 -17 -6 -170
79 -161 90 5 4 2 5 -5 1 -7 -4 -25 2 -41 13 -16 12 -32 21 -36 21 -27 0 -254
168 -330 245 -69 71 -86 94 -141 204 l-49 96 -4 116 c-2 89 -6 116 -17 116 -7
0 -11 -4 -8 -9z m2407 -1539 c46 -12 48 -25 5 -32 -35 -5 -50 3 -54 28 -3 18
0 18 49 4z m-933 -259 c8 -5 11 -10 5 -10 -5 0 -17 5 -25 10 -8 5 -10 10 -5
10 6 0 17 -5 25 -10z"/>
<path d="M5089 5142 c-2 -7 -2 -38 1 -70 7 -81 -4 -151 -36 -222 -20 -44 -30
-57 -37 -48 -6 9 -7 8 -3 -6 7 -21 -79 -150 -95 -141 -5 3 -6 0 -3 -8 6 -17
-94 -109 -109 -100 -6 3 -7 2 -4 -4 3 -5 -3 -16 -15 -24 -11 -8 -33 -24 -48
-37 -17 -13 -35 -20 -47 -16 -13 4 -14 3 -5 -4 10 -7 -11 -25 -84 -71 -54 -34
-105 -59 -112 -56 -7 2 -11 1 -8 -3 5 -9 -222 -128 -241 -126 -7 1 -10 -2 -8
-7 8 -12 -33 -31 -48 -23 -6 4 -9 4 -5 -1 4 -4 -48 -40 -115 -80 -68 -41 -129
-80 -136 -89 -8 -9 -18 -16 -23 -16 -5 0 -21 -9 -35 -20 -14 -11 -29 -17 -34
-14 -5 3 -8 1 -7 -4 4 -12 -138 -122 -147 -114 -4 4 -5 3 -4 -3 4 -12 -145
-157 -154 -150 -4 3 -5 2 -2 -1 4 -6 -65 -97 -86 -114 -3 -3 -32 -39 -64 -80
-32 -41 -62 -74 -67 -72 -5 1 -7 -2 -4 -7 3 -5 -9 -32 -26 -59 -35 -53 -71
-114 -73 -122 -1 -3 -17 -39 -37 -80 -93 -197 -160 -408 -198 -614 -36 -200
-24 -305 60 -516 32 -80 63 -172 70 -205 28 -132 9 -349 -41 -470 -7 -16 -13
-37 -15 -46 -9 -42 -99 -237 -107 -232 -6 3 -7 1 -3 -6 7 -11 -47 -107 -147
-258 -30 -46 -51 -83 -47 -83 15 0 177 180 278 310 24 30 48 54 54 52 5 -1 7
2 3 7 -9 15 44 93 57 85 6 -4 8 -3 5 3 -8 13 58 145 67 135 4 -3 4 2 0 12 -6
15 -4 17 6 11 9 -5 11 -4 6 3 -4 7 4 45 18 85 80 231 70 427 -36 717 -19 52
-35 109 -36 125 0 17 -1 35 -2 40 -2 6 -2 35 -1 65 1 43 8 66 28 98 15 23 33
42 40 42 33 0 43 -45 53 -245 12 -229 27 -308 80 -420 64 -135 65 -135 65 23
0 126 2 144 24 190 13 28 28 49 33 46 4 -3 8 1 8 9 0 20 78 89 92 81 6 -4 8
-3 5 4 -6 8 81 72 98 72 3 0 28 11 56 25 29 13 56 22 62 18 6 -4 7 -1 3 6 -5
8 -3 11 5 10 8 -1 21 0 29 4 16 6 208 67 225 71 6 2 23 8 38 15 16 6 32 9 37
6 4 -3 13 2 20 10 6 8 28 19 48 26 20 6 65 25 100 41 35 15 68 25 74 22 7 -4
8 -2 4 4 -4 7 -1 12 6 12 8 0 44 16 81 35 38 20 73 32 80 29 7 -4 9 -3 4 1 -9
10 94 85 107 78 5 -4 6 -1 3 4 -4 6 4 18 18 27 14 9 39 32 56 51 18 19 36 32
42 28 6 -3 7 -1 4 4 -8 13 27 46 38 36 4 -5 5 -2 1 5 -4 7 7 29 27 55 34 42
130 196 142 230 4 9 4 17 0 17 -4 0 -62 -34 -128 -77 -149 -94 -238 -136 -359
-168 -135 -36 -145 -31 -39 21 101 49 327 186 376 228 16 14 31 23 33 21 2 -2
38 31 80 72 43 42 81 75 87 74 5 -2 7 1 3 5 -11 10 12 35 25 27 5 -3 7 -1 4 4
-4 6 11 42 32 79 22 38 42 80 46 92 6 22 5 23 -17 17 -12 -4 -31 -14 -40 -22
-9 -8 -22 -12 -29 -7 -7 4 -10 3 -6 -3 4 -6 -13 -19 -36 -29 -23 -10 -44 -21
-47 -24 -13 -15 -94 -48 -104 -43 -6 3 -8 2 -4 -2 7 -7 -103 -61 -142 -69 -8
-2 -28 -8 -43 -15 -16 -6 -33 -9 -38 -5 -5 3 -9 1 -9 -5 0 -9 -58 -27 -65 -19
-7 7 97 58 106 52 5 -3 8 -1 7 4 -2 5 33 37 77 72 141 111 192 167 260 287 10
18 23 29 28 26 6 -3 7 -1 3 6 -4 6 5 41 19 77 27 67 43 134 32 134 -4 0 -36
-16 -72 -35 -36 -20 -71 -33 -77 -29 -7 4 -8 3 -4 -5 5 -7 -6 -17 -31 -27 -21
-9 -62 -27 -92 -41 -30 -13 -87 -35 -128 -49 -40 -14 -84 -29 -96 -34 -12 -5
-60 -20 -107 -35 -47 -14 -94 -30 -105 -35 -51 -24 -207 -70 -217 -64 -6 4 -8
3 -4 -4 4 -6 -7 -13 -26 -17 -37 -8 -168 -61 -273 -110 -38 -18 -84 -39 -102
-46 -17 -7 -30 -16 -28 -19 2 -3 -14 -15 -35 -28 -21 -12 -41 -18 -44 -13 -14
22 344 231 394 231 9 0 20 4 26 8 21 20 214 93 225 86 7 -4 9 -3 6 3 -4 7 47
31 128 62 74 28 160 62 191 76 31 14 60 22 65 19 5 -3 9 0 9 5 0 6 5 11 11 11
5 0 37 13 71 30 33 16 65 27 71 23 6 -3 7 -1 3 5 -4 7 -1 12 8 12 8 0 16 4 18
8 2 4 36 30 77 57 41 27 89 63 107 80 18 16 51 47 73 68 22 21 41 41 42 45 0
4 5 6 11 4 5 -1 7 2 4 6 -7 12 28 44 39 35 4 -5 5 -2 1 5 -5 8 -1 21 7 30 9 9
27 41 40 70 14 29 27 50 29 45 3 -4 4 -3 2 4 -1 6 4 32 12 59 25 82 18 218
-15 323 -33 104 -97 225 -152 291 -21 25 -47 56 -57 69 -12 15 -21 20 -23 13z
m-1439 -1807 c-7 -8 -17 -15 -22 -15 -6 0 -5 7 2 15 7 8 17 15 22 15 6 0 5 -7
-2 -15z m-40 -28 c0 -2 -10 -12 -22 -23 l-23 -19 19 23 c18 21 26 27 26 19z"/>
<path d="M3027 3129 c7 -7 15 -10 18 -7 3 3 -2 9 -12 12 -14 6 -15 5 -6 -5z"/>
<path d="M2640 2055 c-19 -14 -31 -25 -27 -25 4 0 1 -12 -6 -27 -8 -16 -22
-60 -32 -100 -16 -62 -17 -83 -8 -160 11 -83 54 -236 90 -320 9 -21 16 -42 14
-47 -1 -5 4 -13 10 -17 13 -8 18 -31 26 -133 6 -67 -22 -190 -40 -179 -6 3 -7
1 -3 -6 4 -6 -13 -54 -38 -106 -25 -53 -46 -102 -46 -110 0 -8 -3 -15 -8 -15
-4 0 -9 -45 -10 -99 -3 -91 -1 -104 24 -155 27 -56 59 -94 70 -84 3 3 -2 31
-11 62 -17 58 -13 136 6 136 6 0 8 4 4 9 -8 13 45 122 56 115 5 -3 6 3 2 12
-5 13 -3 15 7 9 9 -6 11 -4 5 4 -4 8 4 27 21 49 16 20 51 80 79 134 27 53 54
94 59 91 5 -4 6 -1 2 5 -4 6 5 36 19 67 14 31 25 57 25 59 0 2 8 21 17 42 9
22 18 44 19 49 1 6 8 24 15 40 6 17 13 35 15 41 1 7 9 44 18 82 10 44 16 115
16 189 -1 104 -7 150 -37 271 -5 21 -33 32 -33 12 0 -36 -124 -179 -155 -180
-6 0 -12 32 -14 78 -3 88 -27 196 -48 218 -21 21 -63 16 -103 -11z"/>
<path d="M3486 2043 c-6 -14 -5 -15 5 -6 7 7 10 15 7 18 -3 3 -9 -2 -12 -12z"/>
</g>
</svg>
